<?xml version="1.0" encoding="utf-8"?>
<!-- Generator: Adobe Illustrator 20.1.0, SVG Export Plug-In . SVG Version: 6.00 Build 0)  -->
<svg version="1.1" id="Layer_1" xmlns="http://www.w3.org/2000/svg" xmlns:xlink="http://www.w3.org/1999/xlink" x="0px" y="0px"
	 viewBox="0 0 5.9 9.5" style="enable-background:new 0 0 5.9 9.5;" xml:space="preserve">
<style type="text/css">
	.st0{fill:#E81E25;}
</style>
<title>google-pin</title>
<g>
	<title>Layer 1</title>
	<g id="svg_1">
		<g id="svg_2">
			<path class="st0" d="M3,8.6C2.8,7.7,2.5,6.9,2.1,6.2c-0.3-0.5-0.7-1-1-1.5C1,4.5,0.9,4.4,0.8,4.2C0.6,3.8,0.4,3.4,0.4,2.9
				c0-0.5,0.2-0.9,0.4-1.3c0.4-0.6,1-1,1.8-1.1c0.7-0.1,1.3,0.1,1.7,0.3C4.6,1,4.9,1.3,5.1,1.6s0.4,0.7,0.4,1.3c0,0.3,0,0.5-0.1,0.7
				C5.3,3.8,5.2,4,5.1,4.2C5,4.5,4.7,4.9,4.5,5.2C3.9,6.2,3.3,7.2,3,8.6z"/>
			<path d="M3,9.1L2.9,8.6C2.8,7.9,2.5,7.1,2,6.3c-0.2-0.3-0.4-0.7-0.6-1C1.3,5.1,1.2,4.9,1.1,4.7C1,4.6,0.9,4.5,0.9,4.4
				c0-0.1-0.1-0.1-0.1-0.2C0.6,4,0.5,3.8,0.5,3.6C0.4,3.3,0.3,3.1,0.3,2.9c0-0.3,0.1-0.5,0.1-0.7c0.1-0.2,0.2-0.4,0.3-0.6
				C1,1.2,1.2,1,1.5,0.8c0.3-0.2,0.7-0.4,1.1-0.4c0.3-0.1,0.7,0,1,0c0.3,0.1,0.6,0.2,0.8,0.3C4.7,0.9,5,1.2,5.2,1.5
				c0.3,0.4,0.4,0.8,0.4,1.3c0,0.3,0,0.5-0.1,0.8C5.4,3.8,5.4,3.9,5.3,4.1c0,0,0,0.1,0,0.1c-0.2,0.4-0.4,0.7-0.6,1
				c-0.7,1-1.3,2-1.6,3.4L3,9.1z M3,0.5c-0.1,0-0.3,0-0.4,0c-0.4,0.1-0.7,0.2-1,0.4C1.3,1.1,1.1,1.3,0.9,1.6C0.8,1.8,0.7,2,0.7,2.2
				C0.6,2.4,0.5,2.6,0.5,2.9c0,0.6,0.2,1,0.3,1.2C0.9,4.2,1,4.3,1,4.3c0.1,0.1,0.1,0.2,0.2,0.3C1.3,4.8,1.4,5,1.5,5.2
				c0.2,0.3,0.4,0.7,0.6,1c0.4,0.7,0.7,1.4,0.8,2C3.3,7,3.9,6,4.5,5.1c0.2-0.3,0.5-0.7,0.6-1C5.1,4,5.2,4,5.2,3.9
				c0.1-0.1,0.1-0.3,0.2-0.4C5.4,3.3,5.5,3,5.4,2.8c0-0.3,0-0.5-0.1-0.7C5.3,1.9,5.2,1.8,5.1,1.6C4.9,1.3,4.6,1,4.3,0.8
				C3.9,0.6,3.4,0.5,3,0.5z"/>
		</g>
		<g id="svg_4">
			<circle cx="3" cy="2.9" r="0.9"/>
		</g>
	</g>
</g>
</svg>
